{
	"asset":{
		"generator":"Khronos glTF Blender I/O v3.6.27",
		"version":"2.0"
	},
	"scene":0,
	"scenes":[
		{
			"name":"Scene",
			"nodes":[
				0
			]
		}
	],
	"nodes":[
		{
			"mesh":0,
			"name":"Text"
		}
	],
	"materials":[
		{
			"doubleSided":true,
			"name":"Material.001",
			"pbrMetallicRoughness":{
				"metallicFactor":0,
				"roughnessFactor":0.5
			}
		}
	],
	"meshes":[
		{
			"name":"Curve",
			"primitives":[
				{
					"attributes":{
						"POSITION":0,
						"NORMAL":1,
						"TEXCOORD_0":2
					},
					"indices":3,
					"material":0
				}
			]
		}
	],
	"accessors":[
		{
			"bufferView":0,
			"componentType":5126,
			"count":14750,
			"max":[
				1.7791364192962646,
				0.10000000149011612,
				1.2681158781051636
			],
			"min":[
				-1.7791364192962646,
				-0.10000000149011612,
				-1.2681159973144531
			],
			"type":"VEC3"
		},
		{
			"bufferView":1,
			"componentType":5126,
			"count":14750,
			"type":"VEC3"
		},
		{
			"bufferView":2,
			"componentType":5126,
			"count":14750,
			"type":"VEC2"
		},
		{
			"bufferView":3,
			"componentType":5123,
			"count":26196,
			"type":"SCALAR"
		}
	],
	"bufferViews":[
		{
			"buffer":0,
			"byteLength":177000,
			"byteOffset":0,
			"target":34962
		},
		{
			"buffer":0,
			"byteLength":177000,
			"byteOffset":177000,
			"target":34962
		},
		{
			"buffer":0,
			"byteLength":118000,
			"byteOffset":354000,
			"target":34962
		},
		{
			"buffer":0,
			"byteLength":52392,
			"byteOffset":472000,
			"target":34963
		}
	],
	"buffers":[
		{
			"byteLength":524392,
			"uri":"data:application/octet-stream;base64,"
		}
	]
}
